<?xml version="1.0" encoding="utf-8"?>
<!-- Generator: Adobe Illustrator 18.1.0, SVG Export Plug-In . SVG Version: 6.00 Build 0)  -->
<svg version="1.1" id="Layer_1" xmlns="http://www.w3.org/2000/svg" xmlns:xlink="http://www.w3.org/1999/xlink" x="0px" y="0px"
	 viewBox="0 0 40 40" enable-background="new 0 0 40 40" xml:space="preserve">
<circle fill="#B8CCD1" cx="19.992" cy="19.571" r="19"/>
<circle fill="#95B0BA" cx="19.992" cy="19.571" r="15.28"/>
<circle fill="#78909C" cx="19.992" cy="19.571" r="11.471"/>
<g>
	<path fill="#FFFFFF" d="M25.154,21.773h-1.185v-4.087c0-2.22-1.782-4.027-3.971-4.027s-3.971,1.807-3.971,4.027v4.087h-1.185
		c-0.176,0-0.319,0.143-0.319,0.319c0,0.176,0.143,0.319,0.319,0.319h10.312c0.176,0,0.319-0.143,0.319-0.319
		C25.473,21.916,25.33,21.773,25.154,21.773z"/>
	<path fill="#FFFFFF" d="M21.838,23.14c0,1.005-0.815,1.82-1.82,1.82c-1.005,0-1.82-0.815-1.82-1.82"/>
</g>
</svg>
